# xmcd
#
# Track frame offsets: 
#        150
#        18909
#        39144
#        70047
#        86350
#        101494
#        117913
#        134965
#        152033
#        170772
#        192067
#        210129
#        228271
#        256689
#        279249
#        291518
#        314749
#
# Disc length: 4492 seconds
#
# Revision: 0
# Processed by: cddbd v1.5.2PL0 Copyright (c) Steve Scherf et al.
# Submitted via: ExactAudioCopy v0.99pb4
#
DISCID=e4118a11
DTITLE=Hans Theessink - Birthday Bash [CD2)
DYEAR=2009
DGENRE=Blues
TTITLE0=Catch the Wind
TTITLE1=The Blues done have a Baby (feat. Donovan)
TTITLE2=I wish I had someone to love me (feat. Barney McKenna, The Dub
TTITLE2=liners)
TTITLE3=Sail away (feat. Hans Theessink, The Dubliners)
TTITLE4=Slap Tap (feat. Manfred Chromy, Michael Seida)
TTITLE5=Ois von mir (feat. Texas Schrammeln)
TTITLE6=Herzverbunden (feat. Schiffkowitz, Insingizi)
TTITLE7=Gö, Du bleibst heut Nacht bei mir (feat. Schiffkowitz, Hans Th
TTITLE7=eessink)
TTITLE8=Colours (feat. Donovan, Schiffkowitz, Hans Theessink)
TTITLE9=Katrina (feat. Hans Theessink and cast)
TTITLE10=No Expectations (feat. Jack Clement and cast)
TTITLE11=Sail away (feat. Lukas Resetarits)
TTITLE12=You got to move (feat. Erik Trauner and cast)
TTITLE13=See you later Alligator (feat. Nall and cast)
TTITLE14=Whiskey in the Jar (feat. The Dubliners and cast)
TTITLE15=Will the Circle be unbroken (feat. Hans Theessink, Terry Evan
TTITLE15=s, Donovan, Sean Cannon and cast)
TTITLE16=May the Road (feat. Hans Theessink, Vusa Ndlovu and cast)
EXTD=
EXTT0=
EXTT1=
EXTT2=
EXTT3=
EXTT4=
EXTT5=
EXTT6=
EXTT7=
EXTT8=
EXTT9=
EXTT10=
EXTT11=
EXTT12=
EXTT13=
EXTT14=
EXTT15=
EXTT16=
PLAYORDER=
